<svg xmlns="http://www.w3.org/2000/svg" xmlns:xlink="http://www.w3.org/1999/xlink" width="500" zoomAndPan="magnify" viewBox="0 0 375 374.999991" height="500" preserveAspectRatio="xMidYMid meet" version="1.0"><defs><g/><clipPath id="64ffee2e73"><path d="M 164.308594 145.742188 L 205 145.742188 L 205 191 L 164.308594 191 Z M 164.308594 145.742188 " clip-rule="nonzero"/></clipPath><clipPath id="191d6344f7"><path d="M 173 159 L 210.808594 159 L 210.808594 191.492188 L 173 191.492188 Z M 173 159 " clip-rule="nonzero"/></clipPath></defs><g clip-path="url(#64ffee2e73)"><path fill="#2e5364" d="M 166.953125 183.1875 C 165.871094 175.503906 174.351562 167.746094 186.800781 164.152344 L 186.019531 161.503906 L 187.132812 161.183594 L 190.082031 164.039062 C 192.382812 163.195312 195.035156 162.289062 197.304688 161.554688 L 192.910156 154.074219 L 195.324219 153.378906 L 202.234375 160.066406 C 203.09375 159.839844 203.917969 159.648438 204.683594 159.492188 C 203.164062 151.664062 196.226562 145.75 187.890625 145.75 C 178.445312 145.75 170.789062 153.347656 170.789062 162.714844 C 170.789062 164.71875 171.066406 166.675781 171.542969 168.566406 C 168.59375 170.859375 165.410156 174.472656 164.765625 179.667969 C 164.308594 183.359375 166.730469 189.0625 172.164062 190.960938 C 169.253906 188.871094 167.382812 186.226562 166.953125 183.1875 " fill-opacity="1" fill-rule="nonzero"/></g><g clip-path="url(#191d6344f7)"><path fill="#f2f1ec" d="M 209.160156 159.109375 C 209.34375 159.164062 209.453125 159.242188 209.488281 159.351562 C 209.675781 159.992188 206.851562 161.386719 202.980469 162.613281 L 200.78125 171.941406 L 198.371094 172.640625 L 198.019531 163.992188 C 195.707031 164.578125 192.980469 165.230469 190.582031 165.746094 L 189.644531 169.730469 L 188.535156 170.050781 L 187.71875 167.28125 C 178.5 171.328125 172.703125 177.8125 173.609375 184.246094 C 173.632812 184.425781 173.664062 184.597656 173.699219 184.773438 C 173.644531 181.917969 174.859375 179.777344 175.972656 178.421875 C 181.003906 186.273438 187.890625 191.480469 187.890625 191.480469 C 187.890625 191.480469 204.710938 178.765625 204.988281 163.109375 C 206.253906 162.65625 207.382812 162.191406 208.257812 161.753906 C 208.921875 161.421875 209.460938 161.132812 209.796875 160.820312 C 210.8125 159.875 210.445312 159.230469 209.160156 159.109375 " fill-opacity="1" fill-rule="nonzero"/></g><g fill="#2e5364" fill-opacity="1"><g transform="translate(59.529036, 224.89733)"><g><path d="M 13.484375 -27 C 15.171875 -27 16.65625 -26.648438 17.9375 -25.953125 C 19.226562 -25.265625 20.226562 -24.285156 20.9375 -23.015625 C 21.644531 -21.742188 22 -20.285156 22 -18.640625 C 22 -17.023438 21.628906 -15.597656 20.890625 -14.359375 C 20.160156 -13.128906 19.132812 -12.171875 17.8125 -11.484375 C 16.488281 -10.804688 14.96875 -10.46875 13.25 -10.46875 L 7.8125 -10.46875 C 7.664062 -10.46875 7.59375 -10.394531 7.59375 -10.25 L 7.59375 -0.65625 C 7.59375 -0.21875 7.375 0 6.9375 0 L 2.8125 0 C 2.375 0 2.15625 -0.21875 2.15625 -0.65625 L 2.15625 -26.34375 C 2.15625 -26.78125 2.375 -27 2.8125 -27 Z M 12.671875 -14.828125 C 13.847656 -14.828125 14.796875 -15.164062 15.515625 -15.84375 C 16.234375 -16.53125 16.59375 -17.425781 16.59375 -18.53125 C 16.59375 -19.65625 16.234375 -20.5625 15.515625 -21.25 C 14.796875 -21.945312 13.847656 -22.296875 12.671875 -22.296875 L 7.8125 -22.296875 C 7.664062 -22.296875 7.59375 -22.21875 7.59375 -22.0625 L 7.59375 -15.0625 C 7.59375 -14.90625 7.664062 -14.828125 7.8125 -14.828125 Z M 12.671875 -14.828125 "/></g></g></g><g fill="#2e5364" fill-opacity="1"><g transform="translate(82.525215, 224.89733)"><g><path d="M 2.734375 0 C 2.296875 0 2.078125 -0.21875 2.078125 -0.65625 L 2.078125 -26.3125 C 2.078125 -26.738281 2.296875 -26.953125 2.734375 -26.953125 L 6.859375 -26.953125 C 7.296875 -26.953125 7.515625 -26.738281 7.515625 -26.3125 L 7.515625 -0.65625 C 7.515625 -0.21875 7.296875 0 6.859375 0 Z M 2.734375 0 "/></g></g></g><g fill="#2e5364" fill-opacity="1"><g transform="translate(92.116588, 224.89733)"><g><path d="M 9.9375 -20.109375 C 11.601562 -20.109375 13.09375 -19.816406 14.40625 -19.234375 C 15.71875 -18.660156 16.738281 -17.875 17.46875 -16.875 C 18.195312 -15.875 18.5625 -14.753906 18.5625 -13.515625 L 18.5625 -0.65625 C 18.5625 -0.21875 18.34375 0 17.90625 0 L 13.78125 0 C 13.351562 0 13.140625 -0.21875 13.140625 -0.65625 L 13.140625 -1.578125 C 13.140625 -1.679688 13.113281 -1.738281 13.0625 -1.75 C 13.007812 -1.757812 12.941406 -1.726562 12.859375 -1.65625 C 11.679688 -0.34375 9.925781 0.3125 7.59375 0.3125 C 5.613281 0.3125 4.019531 -0.175781 2.8125 -1.15625 C 1.601562 -2.132812 1 -3.570312 1 -5.46875 C 1 -7.445312 1.691406 -8.976562 3.078125 -10.0625 C 4.460938 -11.15625 6.441406 -11.703125 9.015625 -11.703125 L 12.90625 -11.703125 C 13.0625 -11.703125 13.140625 -11.78125 13.140625 -11.9375 L 13.140625 -12.75 C 13.140625 -13.59375 12.875 -14.25 12.34375 -14.71875 C 11.8125 -15.195312 11.046875 -15.4375 10.046875 -15.4375 C 9.273438 -15.4375 8.640625 -15.304688 8.140625 -15.046875 C 7.640625 -14.796875 7.300781 -14.441406 7.125 -13.984375 C 6.96875 -13.617188 6.710938 -13.453125 6.359375 -13.484375 L 2.078125 -14.015625 C 1.867188 -14.046875 1.707031 -14.101562 1.59375 -14.1875 C 1.476562 -14.28125 1.4375 -14.40625 1.46875 -14.5625 C 1.59375 -15.613281 2.03125 -16.5625 2.78125 -17.40625 C 3.539062 -18.257812 4.546875 -18.921875 5.796875 -19.390625 C 7.046875 -19.867188 8.425781 -20.109375 9.9375 -20.109375 Z M 9.171875 -3.734375 C 10.273438 -3.734375 11.210938 -4.023438 11.984375 -4.609375 C 12.753906 -5.203125 13.140625 -5.960938 13.140625 -6.890625 L 13.140625 -8.25 C 13.140625 -8.394531 13.0625 -8.46875 12.90625 -8.46875 L 10.171875 -8.46875 C 9.015625 -8.46875 8.101562 -8.25 7.4375 -7.8125 C 6.769531 -7.375 6.4375 -6.757812 6.4375 -5.96875 C 6.4375 -5.28125 6.6875 -4.734375 7.1875 -4.328125 C 7.6875 -3.929688 8.347656 -3.734375 9.171875 -3.734375 Z M 9.171875 -3.734375 "/></g></g></g><g fill="#2e5364" fill-opacity="1"><g transform="translate(112.454912, 224.89733)"><g><path d="M 12.328125 -20.109375 C 14.378906 -20.109375 16.035156 -19.476562 17.296875 -18.21875 C 18.554688 -16.957031 19.1875 -15.25 19.1875 -13.09375 L 19.1875 -0.65625 C 19.1875 -0.21875 18.96875 0 18.53125 0 L 14.40625 0 C 13.96875 0 13.75 -0.21875 13.75 -0.65625 L 13.75 -11.984375 C 13.75 -13.003906 13.46875 -13.832031 12.90625 -14.46875 C 12.34375 -15.113281 11.582031 -15.4375 10.625 -15.4375 C 9.675781 -15.4375 8.90625 -15.113281 8.3125 -14.46875 C 7.726562 -13.832031 7.4375 -13.003906 7.4375 -11.984375 L 7.4375 -0.65625 C 7.4375 -0.21875 7.21875 0 6.78125 0 L 2.65625 0 C 2.21875 0 2 -0.21875 2 -0.65625 L 2 -19.140625 C 2 -19.578125 2.21875 -19.796875 2.65625 -19.796875 L 6.78125 -19.796875 C 7.21875 -19.796875 7.4375 -19.578125 7.4375 -19.140625 L 7.4375 -18.0625 C 7.4375 -17.957031 7.460938 -17.890625 7.515625 -17.859375 C 7.566406 -17.835938 7.617188 -17.867188 7.671875 -17.953125 C 8.722656 -19.390625 10.273438 -20.109375 12.328125 -20.109375 Z M 12.328125 -20.109375 "/></g></g></g><g fill="#2e5364" fill-opacity="1"><g transform="translate(133.525109, 224.89733)"><g><path d="M 9.90625 0.265625 C 8.175781 0.265625 6.671875 0.0234375 5.390625 -0.453125 C 4.109375 -0.941406 3.117188 -1.625 2.421875 -2.5 C 1.734375 -3.375 1.390625 -4.363281 1.390625 -5.46875 L 1.390625 -5.65625 C 1.390625 -6.09375 1.609375 -6.3125 2.046875 -6.3125 L 5.9375 -6.3125 C 6.375 -6.3125 6.59375 -6.234375 6.59375 -6.078125 L 6.59375 -5.8125 C 6.59375 -5.25 6.898438 -4.769531 7.515625 -4.375 C 8.128906 -3.976562 8.910156 -3.78125 9.859375 -3.78125 C 10.734375 -3.78125 11.4375 -3.945312 11.96875 -4.28125 C 12.507812 -4.613281 12.78125 -5.046875 12.78125 -5.578125 C 12.78125 -6.046875 12.550781 -6.394531 12.09375 -6.625 C 11.632812 -6.851562 10.878906 -7.097656 9.828125 -7.359375 C 8.566406 -7.691406 7.628906 -7.988281 7.015625 -8.25 C 5.335938 -8.8125 4.007812 -9.5 3.03125 -10.3125 C 2.0625 -11.132812 1.578125 -12.316406 1.578125 -13.859375 C 1.578125 -15.765625 2.320312 -17.273438 3.8125 -18.390625 C 5.300781 -19.503906 7.253906 -20.0625 9.671875 -20.0625 C 11.304688 -20.0625 12.75 -19.796875 14 -19.265625 C 15.25 -18.742188 16.210938 -18.007812 16.890625 -17.0625 C 17.566406 -16.113281 17.90625 -15.035156 17.90625 -13.828125 C 17.90625 -13.703125 17.847656 -13.59375 17.734375 -13.5 C 17.617188 -13.40625 17.457031 -13.359375 17.25 -13.359375 L 13.484375 -13.359375 C 13.046875 -13.359375 12.828125 -13.4375 12.828125 -13.59375 L 12.828125 -13.828125 C 12.828125 -14.390625 12.539062 -14.863281 11.96875 -15.25 C 11.40625 -15.632812 10.648438 -15.828125 9.703125 -15.828125 C 8.859375 -15.828125 8.160156 -15.671875 7.609375 -15.359375 C 7.054688 -15.054688 6.78125 -14.632812 6.78125 -14.09375 C 6.78125 -13.582031 7.039062 -13.195312 7.5625 -12.9375 C 8.09375 -12.6875 8.960938 -12.414062 10.171875 -12.125 C 10.910156 -11.976562 11.628906 -11.785156 12.328125 -11.546875 C 14.171875 -11.015625 15.617188 -10.320312 16.671875 -9.46875 C 17.722656 -8.625 18.25 -7.394531 18.25 -5.78125 C 18.25 -3.875 17.492188 -2.390625 15.984375 -1.328125 C 14.472656 -0.265625 12.445312 0.265625 9.90625 0.265625 Z M 9.90625 0.265625 "/></g></g></g><g fill="#2e5364" fill-opacity="1"><g transform="translate(152.900447, 224.89733)"><g/></g></g><g fill="#2e5364" fill-opacity="1"><g transform="translate(160.604357, 224.89733)"><g><path d="M 13.09375 -19.828125 C 13.53125 -19.828125 13.75 -19.613281 13.75 -19.1875 L 13.75 -15.90625 C 13.75 -15.46875 13.53125 -15.25 13.09375 -15.25 L 9.59375 -15.25 C 9.4375 -15.25 9.359375 -15.171875 9.359375 -15.015625 L 9.359375 -0.65625 C 9.359375 -0.21875 9.140625 0 8.703125 0 L 4.578125 0 C 4.140625 0 3.921875 -0.21875 3.921875 -0.65625 L 3.921875 -15.015625 C 3.921875 -15.171875 3.847656 -15.25 3.703125 -15.25 L 1.65625 -15.25 C 1.21875 -15.25 1 -15.46875 1 -15.90625 L 1 -19.1875 C 1 -19.613281 1.21875 -19.828125 1.65625 -19.828125 L 3.703125 -19.828125 C 3.847656 -19.828125 3.921875 -19.90625 3.921875 -20.0625 L 3.921875 -20.875 C 3.921875 -22.46875 4.164062 -23.707031 4.65625 -24.59375 C 5.144531 -25.476562 5.9375 -26.101562 7.03125 -26.46875 C 8.125 -26.84375 9.628906 -27.003906 11.546875 -26.953125 L 12.828125 -26.953125 C 13.265625 -26.953125 13.484375 -26.738281 13.484375 -26.3125 L 13.484375 -23.578125 C 13.484375 -23.140625 13.265625 -22.921875 12.828125 -22.921875 L 11.75 -22.921875 C 10.851562 -22.890625 10.226562 -22.703125 9.875 -22.359375 C 9.53125 -22.015625 9.359375 -21.378906 9.359375 -20.453125 L 9.359375 -20.0625 C 9.359375 -19.90625 9.4375 -19.828125 9.59375 -19.828125 Z M 13.09375 -19.828125 "/></g></g></g><g fill="#2e5364" fill-opacity="1"><g transform="translate(175.51143, 224.89733)"><g><path d="M 10.78125 0.3125 C 8.601562 0.3125 6.742188 -0.25 5.203125 -1.375 C 3.660156 -2.507812 2.609375 -4.054688 2.046875 -6.015625 C 1.679688 -7.210938 1.5 -8.519531 1.5 -9.9375 C 1.5 -11.5 1.691406 -12.859375 2.078125 -14.015625 C 2.671875 -15.921875 3.726562 -17.410156 5.25 -18.484375 C 6.78125 -19.566406 8.640625 -20.109375 10.828125 -20.109375 C 12.929688 -20.109375 14.734375 -19.566406 16.234375 -18.484375 C 17.734375 -17.410156 18.78125 -15.9375 19.375 -14.0625 C 19.757812 -12.875 19.953125 -11.523438 19.953125 -10.015625 C 19.953125 -8.679688 19.785156 -7.382812 19.453125 -6.125 C 18.859375 -4.125 17.796875 -2.550781 16.265625 -1.40625 C 14.742188 -0.257812 12.914062 0.3125 10.78125 0.3125 Z M 10.78125 -4.359375 C 11.601562 -4.359375 12.304688 -4.613281 12.890625 -5.125 C 13.484375 -5.632812 13.910156 -6.335938 14.171875 -7.234375 C 14.378906 -7.929688 14.484375 -8.832031 14.484375 -9.9375 C 14.484375 -11.007812 14.378906 -11.921875 14.171875 -12.671875 C 13.910156 -13.546875 13.484375 -14.222656 12.890625 -14.703125 C 12.304688 -15.191406 11.578125 -15.4375 10.703125 -15.4375 C 9.859375 -15.4375 9.140625 -15.191406 8.546875 -14.703125 C 7.960938 -14.222656 7.539062 -13.546875 7.28125 -12.671875 C 7.070312 -11.921875 6.96875 -11.007812 6.96875 -9.9375 C 6.96875 -8.882812 7.070312 -7.984375 7.28125 -7.234375 C 7.539062 -6.335938 7.96875 -5.632812 8.5625 -5.125 C 9.164062 -4.613281 9.90625 -4.359375 10.78125 -4.359375 Z M 10.78125 -4.359375 "/></g></g></g><g fill="#2e5364" fill-opacity="1"><g transform="translate(196.966824, 224.89733)"><g><path d="M 11.859375 -20.0625 C 12.679688 -20.0625 13.363281 -19.910156 13.90625 -19.609375 C 14.207031 -19.453125 14.320312 -19.179688 14.25 -18.796875 L 13.515625 -14.75 C 13.492188 -14.519531 13.425781 -14.378906 13.3125 -14.328125 C 13.195312 -14.273438 13.007812 -14.273438 12.75 -14.328125 C 12.332031 -14.429688 11.957031 -14.484375 11.625 -14.484375 C 11.445312 -14.484375 11.15625 -14.457031 10.75 -14.40625 C 9.820312 -14.332031 9.035156 -13.992188 8.390625 -13.390625 C 7.753906 -12.785156 7.4375 -11.984375 7.4375 -10.984375 L 7.4375 -0.65625 C 7.4375 -0.21875 7.21875 0 6.78125 0 L 2.65625 0 C 2.21875 0 2 -0.21875 2 -0.65625 L 2 -19.140625 C 2 -19.578125 2.21875 -19.796875 2.65625 -19.796875 L 6.78125 -19.796875 C 7.21875 -19.796875 7.4375 -19.578125 7.4375 -19.140625 L 7.4375 -17.953125 C 7.4375 -17.847656 7.460938 -17.78125 7.515625 -17.75 C 7.566406 -17.726562 7.628906 -17.753906 7.703125 -17.828125 C 8.734375 -19.316406 10.117188 -20.0625 11.859375 -20.0625 Z M 11.859375 -20.0625 "/></g></g></g><g fill="#2e5364" fill-opacity="1"><g transform="translate(211.719813, 224.89733)"><g/></g></g><g fill="#2e5364" fill-opacity="1"><g transform="translate(219.423724, 224.89733)"><g><path d="M 20.765625 -26.953125 C 21.203125 -26.953125 21.421875 -26.738281 21.421875 -26.3125 L 21.421875 -22.921875 C 21.421875 -22.484375 21.203125 -22.265625 20.765625 -22.265625 L 14.09375 -22.265625 C 13.9375 -22.265625 13.859375 -22.1875 13.859375 -22.03125 L 13.859375 -0.65625 C 13.859375 -0.21875 13.640625 0 13.203125 0 L 9.09375 0 C 8.65625 0 8.4375 -0.21875 8.4375 -0.65625 L 8.4375 -22.03125 C 8.4375 -22.1875 8.359375 -22.265625 8.203125 -22.265625 L 1.734375 -22.265625 C 1.296875 -22.265625 1.078125 -22.484375 1.078125 -22.921875 L 1.078125 -26.3125 C 1.078125 -26.738281 1.296875 -26.953125 1.734375 -26.953125 Z M 20.765625 -26.953125 "/></g></g></g><g fill="#2e5364" fill-opacity="1"><g transform="translate(241.957666, 224.89733)"><g><path d="M 10.78125 0.3125 C 8.601562 0.3125 6.742188 -0.25 5.203125 -1.375 C 3.660156 -2.507812 2.609375 -4.054688 2.046875 -6.015625 C 1.679688 -7.210938 1.5 -8.519531 1.5 -9.9375 C 1.5 -11.5 1.691406 -12.859375 2.078125 -14.015625 C 2.671875 -15.921875 3.726562 -17.410156 5.25 -18.484375 C 6.78125 -19.566406 8.640625 -20.109375 10.828125 -20.109375 C 12.929688 -20.109375 14.734375 -19.566406 16.234375 -18.484375 C 17.734375 -17.410156 18.78125 -15.9375 19.375 -14.0625 C 19.757812 -12.875 19.953125 -11.523438 19.953125 -10.015625 C 19.953125 -8.679688 19.785156 -7.382812 19.453125 -6.125 C 18.859375 -4.125 17.796875 -2.550781 16.265625 -1.40625 C 14.742188 -0.257812 12.914062 0.3125 10.78125 0.3125 Z M 10.78125 -4.359375 C 11.601562 -4.359375 12.304688 -4.613281 12.890625 -5.125 C 13.484375 -5.632812 13.910156 -6.335938 14.171875 -7.234375 C 14.378906 -7.929688 14.484375 -8.832031 14.484375 -9.9375 C 14.484375 -11.007812 14.378906 -11.921875 14.171875 -12.671875 C 13.910156 -13.546875 13.484375 -14.222656 12.890625 -14.703125 C 12.304688 -15.191406 11.578125 -15.4375 10.703125 -15.4375 C 9.859375 -15.4375 9.140625 -15.191406 8.546875 -14.703125 C 7.960938 -14.222656 7.539062 -13.546875 7.28125 -12.671875 C 7.070312 -11.921875 6.96875 -11.007812 6.96875 -9.9375 C 6.96875 -8.882812 7.070312 -7.984375 7.28125 -7.234375 C 7.539062 -6.335938 7.96875 -5.632812 8.5625 -5.125 C 9.164062 -4.613281 9.90625 -4.359375 10.78125 -4.359375 Z M 10.78125 -4.359375 "/></g></g></g><g fill="#2e5364" fill-opacity="1"><g transform="translate(263.41307, 224.89733)"><g><path d="M 13.9375 -26.3125 C 13.9375 -26.738281 14.15625 -26.953125 14.59375 -26.953125 L 18.71875 -26.953125 C 19.15625 -26.953125 19.375 -26.738281 19.375 -26.3125 L 19.375 -0.65625 C 19.375 -0.21875 19.15625 0 18.71875 0 L 14.59375 0 C 14.15625 0 13.9375 -0.21875 13.9375 -0.65625 L 13.9375 -1.6875 C 13.9375 -1.789062 13.90625 -1.847656 13.84375 -1.859375 C 13.78125 -1.878906 13.722656 -1.847656 13.671875 -1.765625 C 12.617188 -0.378906 11.15625 0.3125 9.28125 0.3125 C 7.53125 0.3125 5.984375 -0.207031 4.640625 -1.25 C 3.296875 -2.289062 2.363281 -3.660156 1.84375 -5.359375 C 1.40625 -6.585938 1.1875 -8.125 1.1875 -9.96875 C 1.1875 -11.875 1.429688 -13.46875 1.921875 -14.75 C 2.484375 -16.394531 3.410156 -17.703125 4.703125 -18.671875 C 6.003906 -19.648438 7.53125 -20.140625 9.28125 -20.140625 C 11.175781 -20.140625 12.640625 -19.507812 13.671875 -18.25 C 13.722656 -18.175781 13.78125 -18.148438 13.84375 -18.171875 C 13.90625 -18.203125 13.9375 -18.269531 13.9375 -18.375 Z M 13.140625 -6.078125 C 13.648438 -7.035156 13.90625 -8.3125 13.90625 -9.90625 C 13.90625 -11.59375 13.632812 -12.910156 13.09375 -13.859375 C 12.445312 -14.867188 11.585938 -15.375 10.515625 -15.375 C 9.335938 -15.375 8.4375 -14.882812 7.8125 -13.90625 C 7.195312 -12.875 6.890625 -11.523438 6.890625 -9.859375 C 6.890625 -8.347656 7.160156 -7.085938 7.703125 -6.078125 C 8.316406 -4.972656 9.253906 -4.421875 10.515625 -4.421875 C 11.640625 -4.421875 12.515625 -4.972656 13.140625 -6.078125 Z M 13.140625 -6.078125 "/></g></g></g><g fill="#2e5364" fill-opacity="1"><g transform="translate(284.868452, 224.89733)"><g><path d="M 9.9375 -20.109375 C 11.601562 -20.109375 13.09375 -19.816406 14.40625 -19.234375 C 15.71875 -18.660156 16.738281 -17.875 17.46875 -16.875 C 18.195312 -15.875 18.5625 -14.753906 18.5625 -13.515625 L 18.5625 -0.65625 C 18.5625 -0.21875 18.34375 0 17.90625 0 L 13.78125 0 C 13.351562 0 13.140625 -0.21875 13.140625 -0.65625 L 13.140625 -1.578125 C 13.140625 -1.679688 13.113281 -1.738281 13.0625 -1.75 C 13.007812 -1.757812 12.941406 -1.726562 12.859375 -1.65625 C 11.679688 -0.34375 9.925781 0.3125 7.59375 0.3125 C 5.613281 0.3125 4.019531 -0.175781 2.8125 -1.15625 C 1.601562 -2.132812 1 -3.570312 1 -5.46875 C 1 -7.445312 1.691406 -8.976562 3.078125 -10.0625 C 4.460938 -11.15625 6.441406 -11.703125 9.015625 -11.703125 L 12.90625 -11.703125 C 13.0625 -11.703125 13.140625 -11.78125 13.140625 -11.9375 L 13.140625 -12.75 C 13.140625 -13.59375 12.875 -14.25 12.34375 -14.71875 C 11.8125 -15.195312 11.046875 -15.4375 10.046875 -15.4375 C 9.273438 -15.4375 8.640625 -15.304688 8.140625 -15.046875 C 7.640625 -14.796875 7.300781 -14.441406 7.125 -13.984375 C 6.96875 -13.617188 6.710938 -13.453125 6.359375 -13.484375 L 2.078125 -14.015625 C 1.867188 -14.046875 1.707031 -14.101562 1.59375 -14.1875 C 1.476562 -14.28125 1.4375 -14.40625 1.46875 -14.5625 C 1.59375 -15.613281 2.03125 -16.5625 2.78125 -17.40625 C 3.539062 -18.257812 4.546875 -18.921875 5.796875 -19.390625 C 7.046875 -19.867188 8.425781 -20.109375 9.9375 -20.109375 Z M 9.171875 -3.734375 C 10.273438 -3.734375 11.210938 -4.023438 11.984375 -4.609375 C 12.753906 -5.203125 13.140625 -5.960938 13.140625 -6.890625 L 13.140625 -8.25 C 13.140625 -8.394531 13.0625 -8.46875 12.90625 -8.46875 L 10.171875 -8.46875 C 9.015625 -8.46875 8.101562 -8.25 7.4375 -7.8125 C 6.769531 -7.375 6.4375 -6.757812 6.4375 -5.96875 C 6.4375 -5.28125 6.6875 -4.734375 7.1875 -4.328125 C 7.6875 -3.929688 8.347656 -3.734375 9.171875 -3.734375 Z M 9.171875 -3.734375 "/></g></g></g><g fill="#2e5364" fill-opacity="1"><g transform="translate(305.206776, 224.89733)"><g><path d="M 1.890625 7.671875 C 1.710938 7.671875 1.625 7.453125 1.625 7.015625 L 1.625 3.84375 C 1.625 3.414062 1.695312 3.203125 1.84375 3.203125 L 2.078125 3.203125 C 3.671875 3.203125 4.804688 3 5.484375 2.59375 C 6.171875 2.195312 6.664062 1.382812 6.96875 0.15625 C 7.019531 0.03125 7.019531 -0.0703125 6.96875 -0.15625 L 0.765625 -19.0625 C 0.742188 -19.113281 0.734375 -19.191406 0.734375 -19.296875 C 0.734375 -19.453125 0.785156 -19.570312 0.890625 -19.65625 C 0.992188 -19.75 1.132812 -19.796875 1.3125 -19.796875 L 5.734375 -19.796875 C 6.097656 -19.796875 6.34375 -19.613281 6.46875 -19.25 L 9.625 -7.78125 C 9.65625 -7.675781 9.707031 -7.625 9.78125 -7.625 C 9.863281 -7.625 9.914062 -7.675781 9.9375 -7.78125 L 12.9375 -19.21875 C 13.019531 -19.601562 13.265625 -19.796875 13.671875 -19.796875 L 18.109375 -19.796875 C 18.335938 -19.796875 18.5 -19.722656 18.59375 -19.578125 C 18.695312 -19.441406 18.710938 -19.269531 18.640625 -19.0625 L 12.0625 0.734375 C 11.414062 2.609375 10.757812 4.015625 10.09375 4.953125 C 9.425781 5.890625 8.488281 6.578125 7.28125 7.015625 C 6.070312 7.453125 4.363281 7.671875 2.15625 7.671875 Z M 1.890625 7.671875 "/></g></g></g></svg>