<svg xmlns="http://www.w3.org/2000/svg" xmlns:xlink="http://www.w3.org/1999/xlink" width="500" zoomAndPan="magnify" viewBox="0 0 375 374.999991" height="500" preserveAspectRatio="xMidYMid meet" version="1.0"><defs><g/><clipPath id="cfd12d1256"><path d="M 164.308594 129.660156 L 205 129.660156 L 205 175 L 164.308594 175 Z M 164.308594 129.660156 " clip-rule="nonzero"/></clipPath><clipPath id="1604bae8a1"><path d="M 173 143 L 210.808594 143 L 210.808594 175.410156 L 173 175.410156 Z M 173 143 " clip-rule="nonzero"/></clipPath></defs><g clip-path="url(#cfd12d1256)"><path fill="#2e5364" d="M 166.953125 167.105469 C 165.871094 159.421875 174.351562 151.664062 186.800781 148.074219 L 186.019531 145.425781 L 187.132812 145.105469 L 190.082031 147.960938 C 192.382812 147.117188 195.035156 146.210938 197.304688 145.472656 L 192.910156 137.996094 L 195.324219 137.296875 L 202.234375 143.988281 C 203.09375 143.761719 203.917969 143.570312 204.683594 143.414062 C 203.164062 135.585938 196.226562 129.671875 187.890625 129.671875 C 178.445312 129.671875 170.789062 137.265625 170.789062 146.636719 C 170.789062 148.640625 171.066406 150.597656 171.542969 152.488281 C 168.59375 154.777344 165.410156 158.394531 164.765625 163.589844 C 164.308594 167.277344 166.730469 172.980469 172.164062 174.882812 C 169.253906 172.792969 167.382812 170.148438 166.953125 167.105469 " fill-opacity="1" fill-rule="nonzero"/></g><g clip-path="url(#1604bae8a1)"><path fill="#4ccbc4" d="M 209.160156 143.03125 C 209.34375 143.085938 209.453125 143.164062 209.488281 143.269531 C 209.675781 143.914062 206.851562 145.308594 202.980469 146.535156 L 200.78125 155.863281 L 198.371094 156.558594 L 198.019531 147.910156 C 195.707031 148.5 192.980469 149.152344 190.582031 149.667969 L 189.644531 153.648438 L 188.535156 153.972656 L 187.71875 151.199219 C 178.5 155.25 172.703125 161.734375 173.609375 168.167969 C 173.632812 168.34375 173.664062 168.519531 173.699219 168.695312 C 173.644531 165.835938 174.859375 163.695312 175.972656 162.34375 C 181.003906 170.191406 187.890625 175.398438 187.890625 175.398438 C 187.890625 175.398438 204.710938 162.683594 204.988281 147.027344 C 206.253906 146.578125 207.382812 146.109375 208.257812 145.671875 C 208.921875 145.339844 209.460938 145.050781 209.796875 144.738281 C 210.8125 143.796875 210.445312 143.152344 209.160156 143.03125 " fill-opacity="1" fill-rule="nonzero"/></g><g fill="#2e5364" fill-opacity="1"><g transform="translate(25.770083, 224.89733)"><g><path d="M 13.484375 -27 C 15.171875 -27 16.65625 -26.648438 17.9375 -25.953125 C 19.226562 -25.265625 20.226562 -24.285156 20.9375 -23.015625 C 21.644531 -21.742188 22 -20.285156 22 -18.640625 C 22 -17.023438 21.628906 -15.597656 20.890625 -14.359375 C 20.160156 -13.128906 19.132812 -12.171875 17.8125 -11.484375 C 16.488281 -10.804688 14.96875 -10.46875 13.25 -10.46875 L 7.8125 -10.46875 C 7.664062 -10.46875 7.59375 -10.394531 7.59375 -10.25 L 7.59375 -0.65625 C 7.59375 -0.21875 7.375 0 6.9375 0 L 2.8125 0 C 2.375 0 2.15625 -0.21875 2.15625 -0.65625 L 2.15625 -26.34375 C 2.15625 -26.78125 2.375 -27 2.8125 -27 Z M 12.671875 -14.828125 C 13.847656 -14.828125 14.796875 -15.164062 15.515625 -15.84375 C 16.234375 -16.53125 16.59375 -17.425781 16.59375 -18.53125 C 16.59375 -19.65625 16.234375 -20.5625 15.515625 -21.25 C 14.796875 -21.945312 13.847656 -22.296875 12.671875 -22.296875 L 7.8125 -22.296875 C 7.664062 -22.296875 7.59375 -22.21875 7.59375 -22.0625 L 7.59375 -15.0625 C 7.59375 -14.90625 7.664062 -14.828125 7.8125 -14.828125 Z M 12.671875 -14.828125 "/></g></g></g><g fill="#2e5364" fill-opacity="1"><g transform="translate(48.766263, 224.89733)"><g><path d="M 3 0 C 2.5625 0 2.34375 -0.21875 2.34375 -0.65625 L 2.34375 -26.3125 C 2.34375 -26.738281 2.5625 -26.953125 3 -26.953125 L 7.125 -26.953125 C 7.5625 -26.953125 7.78125 -26.738281 7.78125 -26.3125 L 7.78125 -4.890625 C 7.78125 -4.734375 7.859375 -4.65625 8.015625 -4.65625 L 20.375 -4.65625 C 20.8125 -4.65625 21.03125 -4.4375 21.03125 -4 L 21.03125 -0.65625 C 21.03125 -0.21875 20.8125 0 20.375 0 Z M 3 0 "/></g></g></g><g fill="#2e5364" fill-opacity="1"><g transform="translate(70.799446, 224.89733)"><g><path d="M 19.6875 0 C 19.320312 0 19.078125 -0.179688 18.953125 -0.546875 L 17.875 -4.125 C 17.84375 -4.25 17.765625 -4.3125 17.640625 -4.3125 L 8.203125 -4.3125 C 8.078125 -4.3125 8 -4.25 7.96875 -4.125 L 6.890625 -0.546875 C 6.765625 -0.179688 6.519531 0 6.15625 0 L 1.6875 0 C 1.457031 0 1.289062 -0.0664062 1.1875 -0.203125 C 1.09375 -0.347656 1.082031 -0.523438 1.15625 -0.734375 L 9.359375 -26.421875 C 9.484375 -26.773438 9.726562 -26.953125 10.09375 -26.953125 L 15.75 -26.953125 C 16.113281 -26.953125 16.359375 -26.773438 16.484375 -26.421875 L 24.6875 -0.734375 C 24.71875 -0.679688 24.734375 -0.601562 24.734375 -0.5 C 24.734375 -0.34375 24.679688 -0.21875 24.578125 -0.125 C 24.472656 -0.0390625 24.332031 0 24.15625 0 Z M 9.328125 -8.78125 C 9.296875 -8.601562 9.359375 -8.515625 9.515625 -8.515625 L 16.328125 -8.515625 C 16.484375 -8.515625 16.546875 -8.601562 16.515625 -8.78125 L 13.0625 -20.53125 C 13.03125 -20.632812 12.984375 -20.6875 12.921875 -20.6875 C 12.859375 -20.6875 12.800781 -20.632812 12.75 -20.53125 Z M 9.328125 -8.78125 "/></g></g></g><g fill="#2e5364" fill-opacity="1"><g transform="translate(96.646074, 224.89733)"><g><path d="M 3 0 C 2.5625 0 2.34375 -0.21875 2.34375 -0.65625 L 2.34375 -26.3125 C 2.34375 -26.738281 2.5625 -26.953125 3 -26.953125 L 6.96875 -26.953125 C 7.300781 -26.953125 7.554688 -26.8125 7.734375 -26.53125 L 17.375 -10.515625 C 17.425781 -10.410156 17.484375 -10.367188 17.546875 -10.390625 C 17.609375 -10.421875 17.640625 -10.488281 17.640625 -10.59375 L 17.640625 -26.3125 C 17.640625 -26.738281 17.859375 -26.953125 18.296875 -26.953125 L 22.34375 -26.953125 C 22.78125 -26.953125 23 -26.738281 23 -26.3125 L 23 -0.65625 C 23 -0.21875 22.78125 0 22.34375 0 L 18.40625 0 C 18.101562 0 17.847656 -0.15625 17.640625 -0.46875 L 7.96875 -16.640625 C 7.914062 -16.742188 7.859375 -16.78125 7.796875 -16.75 C 7.734375 -16.726562 7.703125 -16.664062 7.703125 -16.5625 L 7.734375 -0.65625 C 7.734375 -0.21875 7.519531 0 7.09375 0 Z M 3 0 "/></g></g></g><g fill="#2e5364" fill-opacity="1"><g transform="translate(121.991943, 224.89733)"><g><path d="M 11.484375 0.3125 C 9.472656 0.3125 7.707031 -0.0195312 6.1875 -0.6875 C 4.675781 -1.351562 3.507812 -2.289062 2.6875 -3.5 C 1.875 -4.707031 1.46875 -6.117188 1.46875 -7.734375 L 1.46875 -8.390625 C 1.46875 -8.828125 1.6875 -9.046875 2.125 -9.046875 L 6.15625 -9.046875 C 6.59375 -9.046875 6.8125 -8.878906 6.8125 -8.546875 L 6.8125 -8.015625 C 6.8125 -6.984375 7.28125 -6.113281 8.21875 -5.40625 C 9.15625 -4.707031 10.382812 -4.359375 11.90625 -4.359375 C 13.257812 -4.359375 14.265625 -4.644531 14.921875 -5.21875 C 15.578125 -5.789062 15.90625 -6.503906 15.90625 -7.359375 C 15.90625 -7.972656 15.695312 -8.488281 15.28125 -8.90625 C 14.875 -9.332031 14.320312 -9.707031 13.625 -10.03125 C 12.9375 -10.351562 11.820312 -10.796875 10.28125 -11.359375 C 8.539062 -11.953125 7.078125 -12.554688 5.890625 -13.171875 C 4.710938 -13.785156 3.710938 -14.625 2.890625 -15.6875 C 2.066406 -16.757812 1.65625 -18.078125 1.65625 -19.640625 C 1.65625 -21.179688 2.050781 -22.53125 2.84375 -23.6875 C 3.644531 -24.84375 4.753906 -25.726562 6.171875 -26.34375 C 7.597656 -26.957031 9.222656 -27.265625 11.046875 -27.265625 C 13.003906 -27.265625 14.753906 -26.914062 16.296875 -26.21875 C 17.835938 -25.53125 19.035156 -24.5625 19.890625 -23.3125 C 20.753906 -22.070312 21.1875 -20.628906 21.1875 -18.984375 L 21.1875 -18.609375 C 21.1875 -18.171875 20.96875 -17.953125 20.53125 -17.953125 L 16.484375 -17.953125 C 16.046875 -17.953125 15.828125 -18.078125 15.828125 -18.328125 L 15.828125 -18.71875 C 15.828125 -19.800781 15.382812 -20.71875 14.5 -21.46875 C 13.613281 -22.226562 12.398438 -22.609375 10.859375 -22.609375 C 9.628906 -22.609375 8.679688 -22.347656 8.015625 -21.828125 C 7.347656 -21.316406 7.015625 -20.613281 7.015625 -19.71875 C 7.015625 -19.070312 7.207031 -18.53125 7.59375 -18.09375 C 7.976562 -17.664062 8.5625 -17.269531 9.34375 -16.90625 C 10.125 -16.550781 11.335938 -16.085938 12.984375 -15.515625 C 14.773438 -14.847656 16.195312 -14.265625 17.25 -13.765625 C 18.300781 -13.265625 19.242188 -12.5 20.078125 -11.46875 C 20.921875 -10.445312 21.34375 -9.128906 21.34375 -7.515625 C 21.34375 -5.941406 20.9375 -4.566406 20.125 -3.390625 C 19.3125 -2.210938 18.164062 -1.300781 16.6875 -0.65625 C 15.21875 -0.0078125 13.484375 0.3125 11.484375 0.3125 Z M 11.484375 0.3125 "/></g></g></g><g fill="#2e5364" fill-opacity="1"><g transform="translate(144.795519, 224.89733)"><g/></g></g><g fill="#2e5364" fill-opacity="1"><g transform="translate(152.49943, 224.89733)"><g><path d="M 21.03125 -22.953125 C 21.03125 -22.515625 20.8125 -22.296875 20.375 -22.296875 L 8.015625 -22.296875 C 7.859375 -22.296875 7.78125 -22.21875 7.78125 -22.0625 L 7.78125 -16.171875 C 7.78125 -16.023438 7.859375 -15.953125 8.015625 -15.953125 L 16.0625 -15.953125 C 16.5 -15.953125 16.71875 -15.734375 16.71875 -15.296875 L 16.71875 -11.9375 C 16.71875 -11.5 16.5 -11.28125 16.0625 -11.28125 L 8.015625 -11.28125 C 7.859375 -11.28125 7.78125 -11.203125 7.78125 -11.046875 L 7.78125 -0.65625 C 7.78125 -0.21875 7.5625 0 7.125 0 L 3 0 C 2.5625 0 2.34375 -0.21875 2.34375 -0.65625 L 2.34375 -26.3125 C 2.34375 -26.738281 2.5625 -26.953125 3 -26.953125 L 20.375 -26.953125 C 20.8125 -26.953125 21.03125 -26.738281 21.03125 -26.3125 Z M 21.03125 -22.953125 "/></g></g></g><g fill="#2e5364" fill-opacity="1"><g transform="translate(174.070385, 224.89733)"><g><path d="M 11.9375 0.421875 C 9.9375 0.421875 8.171875 0.0078125 6.640625 -0.8125 C 5.117188 -1.632812 3.929688 -2.78125 3.078125 -4.25 C 2.234375 -5.726562 1.8125 -7.429688 1.8125 -9.359375 L 1.8125 -17.609375 C 1.8125 -19.503906 2.234375 -21.179688 3.078125 -22.640625 C 3.929688 -24.109375 5.117188 -25.242188 6.640625 -26.046875 C 8.171875 -26.859375 9.9375 -27.265625 11.9375 -27.265625 C 13.96875 -27.265625 15.742188 -26.859375 17.265625 -26.046875 C 18.796875 -25.242188 19.984375 -24.109375 20.828125 -22.640625 C 21.679688 -21.179688 22.109375 -19.503906 22.109375 -17.609375 L 22.109375 -9.359375 C 22.109375 -7.429688 21.679688 -5.722656 20.828125 -4.234375 C 19.984375 -2.742188 18.796875 -1.59375 17.265625 -0.78125 C 15.742188 0.0195312 13.96875 0.421875 11.9375 0.421875 Z M 11.9375 -4.234375 C 13.351562 -4.234375 14.492188 -4.679688 15.359375 -5.578125 C 16.234375 -6.484375 16.671875 -7.679688 16.671875 -9.171875 L 16.671875 -17.640625 C 16.671875 -19.128906 16.238281 -20.328125 15.375 -21.234375 C 14.519531 -22.148438 13.375 -22.609375 11.9375 -22.609375 C 10.53125 -22.609375 9.394531 -22.148438 8.53125 -21.234375 C 7.664062 -20.328125 7.234375 -19.128906 7.234375 -17.640625 L 7.234375 -9.171875 C 7.234375 -7.679688 7.664062 -6.484375 8.53125 -5.578125 C 9.394531 -4.679688 10.53125 -4.234375 11.9375 -4.234375 Z M 11.9375 -4.234375 "/></g></g></g><g fill="#2e5364" fill-opacity="1"><g transform="translate(197.991031, 224.89733)"><g><path d="M 17.296875 0 C 16.960938 0 16.703125 -0.164062 16.515625 -0.5 L 11.78125 -10.984375 C 11.726562 -11.109375 11.640625 -11.171875 11.515625 -11.171875 L 8.015625 -11.171875 C 7.859375 -11.171875 7.78125 -11.09375 7.78125 -10.9375 L 7.78125 -0.65625 C 7.78125 -0.21875 7.5625 0 7.125 0 L 3 0 C 2.5625 0 2.34375 -0.21875 2.34375 -0.65625 L 2.34375 -26.34375 C 2.34375 -26.78125 2.5625 -27 3 -27 L 13.828125 -27 C 15.472656 -27 16.914062 -26.65625 18.15625 -25.96875 C 19.40625 -25.289062 20.367188 -24.335938 21.046875 -23.109375 C 21.722656 -21.878906 22.0625 -20.46875 22.0625 -18.875 C 22.0625 -17.125 21.625 -15.617188 20.75 -14.359375 C 19.882812 -13.109375 18.679688 -12.222656 17.140625 -11.703125 C 17.066406 -11.679688 17.015625 -11.640625 16.984375 -11.578125 C 16.960938 -11.515625 16.976562 -11.457031 17.03125 -11.40625 L 22.109375 -0.765625 C 22.179688 -0.660156 22.21875 -0.546875 22.21875 -0.421875 C 22.21875 -0.296875 22.164062 -0.191406 22.0625 -0.109375 C 21.96875 -0.0351562 21.828125 0 21.640625 0 Z M 8.015625 -22.296875 C 7.859375 -22.296875 7.78125 -22.21875 7.78125 -22.0625 L 7.78125 -15.59375 C 7.78125 -15.445312 7.859375 -15.375 8.015625 -15.375 L 13.015625 -15.375 C 14.097656 -15.375 14.976562 -15.6875 15.65625 -16.3125 C 16.332031 -16.9375 16.671875 -17.765625 16.671875 -18.796875 C 16.671875 -19.828125 16.332031 -20.664062 15.65625 -21.3125 C 14.976562 -21.96875 14.097656 -22.296875 13.015625 -22.296875 Z M 8.015625 -22.296875 "/></g></g></g><g fill="#2e5364" fill-opacity="1"><g transform="translate(221.642042, 224.89733)"><g/></g></g><g fill="#2e5364" fill-opacity="1"><g transform="translate(229.345952, 224.89733)"><g><path d="M 20.765625 -26.953125 C 21.203125 -26.953125 21.421875 -26.738281 21.421875 -26.3125 L 21.421875 -22.921875 C 21.421875 -22.484375 21.203125 -22.265625 20.765625 -22.265625 L 14.09375 -22.265625 C 13.9375 -22.265625 13.859375 -22.1875 13.859375 -22.03125 L 13.859375 -0.65625 C 13.859375 -0.21875 13.640625 0 13.203125 0 L 9.09375 0 C 8.65625 0 8.4375 -0.21875 8.4375 -0.65625 L 8.4375 -22.03125 C 8.4375 -22.1875 8.359375 -22.265625 8.203125 -22.265625 L 1.734375 -22.265625 C 1.296875 -22.265625 1.078125 -22.484375 1.078125 -22.921875 L 1.078125 -26.3125 C 1.078125 -26.738281 1.296875 -26.953125 1.734375 -26.953125 Z M 20.765625 -26.953125 "/></g></g></g><g fill="#2e5364" fill-opacity="1"><g transform="translate(251.879894, 224.89733)"><g><path d="M 11.9375 0.421875 C 9.9375 0.421875 8.171875 0.0078125 6.640625 -0.8125 C 5.117188 -1.632812 3.929688 -2.78125 3.078125 -4.25 C 2.234375 -5.726562 1.8125 -7.429688 1.8125 -9.359375 L 1.8125 -17.609375 C 1.8125 -19.503906 2.234375 -21.179688 3.078125 -22.640625 C 3.929688 -24.109375 5.117188 -25.242188 6.640625 -26.046875 C 8.171875 -26.859375 9.9375 -27.265625 11.9375 -27.265625 C 13.96875 -27.265625 15.742188 -26.859375 17.265625 -26.046875 C 18.796875 -25.242188 19.984375 -24.109375 20.828125 -22.640625 C 21.679688 -21.179688 22.109375 -19.503906 22.109375 -17.609375 L 22.109375 -9.359375 C 22.109375 -7.429688 21.679688 -5.722656 20.828125 -4.234375 C 19.984375 -2.742188 18.796875 -1.59375 17.265625 -0.78125 C 15.742188 0.0195312 13.96875 0.421875 11.9375 0.421875 Z M 11.9375 -4.234375 C 13.351562 -4.234375 14.492188 -4.679688 15.359375 -5.578125 C 16.234375 -6.484375 16.671875 -7.679688 16.671875 -9.171875 L 16.671875 -17.640625 C 16.671875 -19.128906 16.238281 -20.328125 15.375 -21.234375 C 14.519531 -22.148438 13.375 -22.609375 11.9375 -22.609375 C 10.53125 -22.609375 9.394531 -22.148438 8.53125 -21.234375 C 7.664062 -20.328125 7.234375 -19.128906 7.234375 -17.640625 L 7.234375 -9.171875 C 7.234375 -7.679688 7.664062 -6.484375 8.53125 -5.578125 C 9.394531 -4.679688 10.53125 -4.234375 11.9375 -4.234375 Z M 11.9375 -4.234375 "/></g></g></g><g fill="#2e5364" fill-opacity="1"><g transform="translate(275.800539, 224.89733)"><g><path d="M 3 0 C 2.5625 0 2.34375 -0.21875 2.34375 -0.65625 L 2.34375 -26.3125 C 2.34375 -26.738281 2.5625 -26.953125 3 -26.953125 L 12.4375 -26.953125 C 14.363281 -26.953125 16.050781 -26.613281 17.5 -25.9375 C 18.957031 -25.257812 20.082031 -24.300781 20.875 -23.0625 C 21.664062 -21.832031 22.0625 -20.410156 22.0625 -18.796875 L 22.0625 -8.171875 C 22.0625 -6.546875 21.664062 -5.117188 20.875 -3.890625 C 20.082031 -2.660156 18.957031 -1.703125 17.5 -1.015625 C 16.050781 -0.335938 14.363281 0 12.4375 0 Z M 7.78125 -4.890625 C 7.78125 -4.734375 7.859375 -4.65625 8.015625 -4.65625 L 12.640625 -4.65625 C 13.816406 -4.65625 14.769531 -5.050781 15.5 -5.84375 C 16.226562 -6.644531 16.609375 -7.710938 16.640625 -9.046875 L 16.640625 -17.90625 C 16.640625 -19.238281 16.269531 -20.300781 15.53125 -21.09375 C 14.800781 -21.894531 13.820312 -22.296875 12.59375 -22.296875 L 8.015625 -22.296875 C 7.859375 -22.296875 7.78125 -22.21875 7.78125 -22.0625 Z M 7.78125 -4.890625 "/></g></g></g><g fill="#2e5364" fill-opacity="1"><g transform="translate(299.605622, 224.89733)"><g><path d="M 19.6875 0 C 19.320312 0 19.078125 -0.179688 18.953125 -0.546875 L 17.875 -4.125 C 17.84375 -4.25 17.765625 -4.3125 17.640625 -4.3125 L 8.203125 -4.3125 C 8.078125 -4.3125 8 -4.25 7.96875 -4.125 L 6.890625 -0.546875 C 6.765625 -0.179688 6.519531 0 6.15625 0 L 1.6875 0 C 1.457031 0 1.289062 -0.0664062 1.1875 -0.203125 C 1.09375 -0.347656 1.082031 -0.523438 1.15625 -0.734375 L 9.359375 -26.421875 C 9.484375 -26.773438 9.726562 -26.953125 10.09375 -26.953125 L 15.75 -26.953125 C 16.113281 -26.953125 16.359375 -26.773438 16.484375 -26.421875 L 24.6875 -0.734375 C 24.71875 -0.679688 24.734375 -0.601562 24.734375 -0.5 C 24.734375 -0.34375 24.679688 -0.21875 24.578125 -0.125 C 24.472656 -0.0390625 24.332031 0 24.15625 0 Z M 9.328125 -8.78125 C 9.296875 -8.601562 9.359375 -8.515625 9.515625 -8.515625 L 16.328125 -8.515625 C 16.484375 -8.515625 16.546875 -8.601562 16.515625 -8.78125 L 13.0625 -20.53125 C 13.03125 -20.632812 12.984375 -20.6875 12.921875 -20.6875 C 12.859375 -20.6875 12.800781 -20.632812 12.75 -20.53125 Z M 9.328125 -8.78125 "/></g></g></g><g fill="#2e5364" fill-opacity="1"><g transform="translate(325.452239, 224.89733)"><g><path d="M 9.828125 -0.03125 C 9.390625 -0.03125 9.171875 -0.25 9.171875 -0.6875 L 9.171875 -10.203125 L 9.09375 -10.515625 L 1.3125 -26.1875 C 1.226562 -26.320312 1.1875 -26.4375 1.1875 -26.53125 C 1.1875 -26.664062 1.238281 -26.769531 1.34375 -26.84375 C 1.445312 -26.914062 1.585938 -26.953125 1.765625 -26.953125 L 6.234375 -26.953125 C 6.597656 -26.953125 6.859375 -26.785156 7.015625 -26.453125 L 11.703125 -16.453125 C 11.753906 -16.367188 11.8125 -16.328125 11.875 -16.328125 C 11.945312 -16.328125 11.992188 -16.367188 12.015625 -16.453125 L 16.71875 -26.453125 C 16.894531 -26.785156 17.148438 -26.953125 17.484375 -26.953125 L 22 -26.953125 C 22.375 -26.953125 22.5625 -26.800781 22.5625 -26.5 C 22.5625 -26.375 22.539062 -26.269531 22.5 -26.1875 L 14.640625 -10.515625 L 14.5625 -10.203125 L 14.5625 -0.6875 C 14.5625 -0.25 14.34375 -0.03125 13.90625 -0.03125 Z M 9.828125 -0.03125 "/></g></g></g></svg>