<svg xmlns="http://www.w3.org/2000/svg" xmlns:xlink="http://www.w3.org/1999/xlink" width="500" zoomAndPan="magnify" viewBox="0 0 375 374.999991" height="500" preserveAspectRatio="xMidYMid meet" version="1.0"><defs><clipPath id="35a3389a7b"><path d="M 102 101.597656 L 252 101.597656 L 252 272 L 102 272 Z M 102 101.597656 " clip-rule="nonzero"/></clipPath><clipPath id="47b5fec997"><path d="M 135 151 L 273 151 L 273 273.347656 L 135 273.347656 Z M 135 151 " clip-rule="nonzero"/></clipPath></defs><g clip-path="url(#35a3389a7b)"><path fill="#2e5364" d="M 110.738281 242.167969 C 106.703125 213.324219 138.296875 184.199219 184.671875 170.714844 L 181.773438 160.773438 L 185.910156 159.570312 L 196.90625 170.296875 C 205.480469 167.125 215.363281 163.726562 223.816406 160.960938 L 207.445312 132.886719 L 216.4375 130.265625 L 242.175781 155.382812 C 245.390625 154.53125 248.460938 153.808594 251.308594 153.222656 C 245.652344 123.835938 219.792969 101.632812 188.742188 101.632812 C 153.554688 101.632812 125.03125 130.148438 125.03125 165.324219 C 125.03125 172.847656 126.050781 180.195312 127.832031 187.289062 C 116.839844 195.890625 104.976562 209.464844 102.582031 228.960938 C 100.882812 242.816406 109.894531 264.222656 130.148438 271.355469 C 119.308594 263.511719 112.335938 253.582031 110.738281 242.167969 " fill-opacity="1" fill-rule="nonzero"/></g><g clip-path="url(#47b5fec997)"><path fill="#41c1ba" d="M 267.992188 151.785156 C 268.667969 151.988281 269.085938 152.289062 269.203125 152.6875 C 269.90625 155.101562 259.386719 160.339844 244.964844 164.941406 L 236.773438 199.957031 L 227.785156 202.578125 L 226.484375 170.109375 C 217.871094 172.320312 207.707031 174.765625 198.773438 176.699219 L 195.273438 191.652344 L 191.136719 192.859375 L 188.097656 182.457031 C 153.753906 197.652344 132.152344 222.003906 135.53125 246.152344 C 135.625 246.816406 135.734375 247.472656 135.863281 248.125 C 135.664062 237.40625 140.191406 229.367188 144.335938 224.28125 C 163.085938 253.757812 188.742188 273.300781 188.742188 273.300781 C 188.742188 273.300781 251.410156 225.570312 252.445312 166.796875 C 257.164062 165.097656 261.363281 163.347656 264.625 161.707031 C 267.09375 160.464844 269.105469 159.378906 270.359375 158.203125 C 274.136719 154.65625 272.78125 152.246094 267.992188 151.785156 " fill-opacity="1" fill-rule="nonzero"/></g></svg>