<svg xmlns="http://www.w3.org/2000/svg" xmlns:xlink="http://www.w3.org/1999/xlink" width="500" zoomAndPan="magnify" viewBox="0 0 375 374.999991" height="500" preserveAspectRatio="xMidYMid meet" version="1.0"><defs><clipPath id="93bc7583d5"><path d="M 4.199219 4.199219 L 370.800781 4.199219 L 370.800781 362 L 4.199219 362 Z M 4.199219 4.199219 " clip-rule="nonzero"/></clipPath><clipPath id="42d11b5bf0"><path d="M 187.5 4.199219 C 86.265625 4.199219 4.199219 84.207031 4.199219 182.90625 C 4.199219 281.601562 86.265625 361.613281 187.5 361.613281 C 288.734375 361.613281 370.800781 281.601562 370.800781 182.90625 C 370.800781 84.207031 288.734375 4.199219 187.5 4.199219 " clip-rule="nonzero"/></clipPath><clipPath id="3ec8517abd"><path d="M 40 39.40625 L 298 39.40625 L 298 333 L 40 333 Z M 40 39.40625 " clip-rule="nonzero"/></clipPath><clipPath id="2887459ddb"><path d="M 97 125 L 334 125 L 334 335.65625 L 97 335.65625 Z M 97 125 " clip-rule="nonzero"/></clipPath></defs><g clip-path="url(#93bc7583d5)"><g clip-path="url(#42d11b5bf0)"><path fill="#f2f1ec" d="M 4.199219 4.199219 L 370.800781 4.199219 L 370.800781 361.492188 L 4.199219 361.492188 Z M 4.199219 4.199219 " fill-opacity="1" fill-rule="nonzero"/></g></g><g clip-path="url(#3ec8517abd)"><path fill="#2e5364" d="M 55.152344 281.875 C 48.203125 232.121094 102.632812 181.886719 182.539062 158.625 L 177.542969 141.480469 L 184.671875 139.402344 L 203.613281 157.90625 C 218.386719 152.4375 235.414062 146.570312 249.984375 141.800781 L 221.777344 93.375 L 237.265625 88.855469 L 281.613281 132.179688 C 287.148438 130.710938 292.445312 129.464844 297.347656 128.453125 C 287.601562 77.765625 243.046875 39.46875 189.554688 39.46875 C 128.925781 39.46875 79.777344 88.652344 79.777344 149.332031 C 79.777344 162.304688 81.535156 174.976562 84.605469 187.214844 C 65.667969 202.050781 45.226562 225.464844 41.101562 259.09375 C 38.171875 282.988281 53.703125 319.917969 88.597656 332.222656 L 88.597656 332.21875 C 69.921875 318.6875 57.90625 301.566406 55.152344 281.875 " fill-opacity="1" fill-rule="nonzero"/></g><g clip-path="url(#2887459ddb)"><path fill="#41c1ba" d="M 326.09375 125.976562 C 327.261719 126.328125 327.976562 126.84375 328.179688 127.53125 C 329.394531 131.691406 311.265625 140.730469 286.417969 148.667969 L 272.304688 209.0625 L 256.820312 213.582031 L 254.582031 157.578125 C 239.738281 161.394531 222.226562 165.613281 206.832031 168.949219 L 200.804688 194.742188 L 193.675781 196.824219 L 188.441406 178.878906 C 129.269531 205.09375 92.050781 247.089844 97.871094 288.75 C 98.03125 289.890625 98.222656 291.027344 98.445312 292.152344 C 98.101562 273.660156 105.902344 259.792969 113.039062 251.023438 C 145.34375 301.863281 189.554688 335.574219 189.554688 335.574219 C 189.554688 335.574219 297.519531 253.246094 299.304688 151.867188 C 307.433594 148.941406 314.671875 145.917969 320.292969 143.085938 C 324.546875 140.941406 328.015625 139.070312 330.175781 137.042969 C 336.683594 130.925781 334.34375 126.769531 326.09375 125.976562 " fill-opacity="1" fill-rule="nonzero"/></g></svg>